<svg width="18" height="18" viewBox="0 0 18 18" fill="none" xmlns="http://www.w3.org/2000/svg">
<path fill-rule="evenodd" clip-rule="evenodd" d="M16 14V4.00004C17.104 4.00004 18 3.10505 18 2.00002C18 0.895979 17.104 0 16 0C14.8949 0 14 0.895979 14 2.00002H4.00004C4.00004 0.895979 3.10505 0 2.00002 0C0.894982 0 0 0.895979 0 2.00002C0 3.10505 0.894982 4.00004 2.00002 4.00004V14C0.894982 14 0 14.8959 0 16C0 17.105 0.894982 18 2.00002 18C3.10505 18 4.00004 17.105 4.00004 16H14C14 17.105 14.8949 18 16 18C17.104 18 18 17.105 18 16C18 14.8959 17.104 14 16 14ZM2.99985 3.722C3.29993 3.54798 3.54792 3.3 3.72293 2.99991H5.99992L2.99985 5.99999V3.722ZM2.99985 6.99992L7.00001 2.99975H9.00003L2.99995 8.99984L2.99985 6.99992ZM2.99985 9.99986L9.9999 2.99982H11.9999L2.99995 11.9998L2.99985 9.99986ZM3.4079 14.5918C3.28687 14.4699 3.14988 14.3648 2.99985 14.2768V12.9998L12.9998 2.99989H14.2767C14.3647 3.14993 14.4698 3.28691 14.5917 3.40794L3.4079 14.5918ZM14.9999 14.2768C14.6998 14.4518 14.4518 14.6998 14.2768 14.9998H12.9998L14.9999 12.9998V14.2768ZM14.9999 11.9998L11.9998 14.9998H9.99977L14.9999 9.99971L14.9999 11.9998ZM14.9999 8.99981L8.99977 14.9999H6.99976L14.9998 6.99989L14.9999 8.99981ZM14.9999 5.99987L5.99989 14.9998H3.99988L14.9998 3.99995L14.9999 5.99987Z" fill="black"/>
</svg>
