<svg width="48" height="48" viewBox="0 0 48 48" fill="none" xmlns="http://www.w3.org/2000/svg">
<path d="M32.2831 17.7745C31.9097 17.4011 31.4071 17.1904 30.8806 17.1904C30.354 17.1904 29.8513 17.3963 29.478 17.7745L21.182 26.0274L18.5251 23.3514C17.7592 22.5855 16.5002 22.5759 15.7247 23.3371C14.9444 24.0982 14.9348 25.3572 15.7007 26.1423L19.7602 30.2305C20.1336 30.6039 20.6363 30.8145 21.1676 30.8145C21.6942 30.8145 22.192 30.6086 22.5654 30.2353L32.274 20.5845C33.0399 19.8186 33.0495 18.5595 32.2884 17.7841L32.2831 17.7745Z" fill="#7E6745"/>
<path d="M46.1093 14.6677C44.8982 11.8098 43.1652 9.24391 40.9632 7.03705C38.7564 4.83501 36.1905 3.10208 33.3326 1.89094C30.3741 0.636732 27.2338 0 23.9978 0C10.766 0.00478705 0 10.7712 0 24.0022C0 37.2332 10.766 48 23.9978 48C37.2297 48 47.9956 37.234 47.9956 24.0022C47.9956 20.7661 47.3637 17.6258 46.1095 14.6674L46.1093 14.6677ZM23.9979 44.0314C12.9544 44.0314 3.96894 35.0459 3.96894 24.0025C3.96894 12.959 12.9544 3.97349 23.9979 3.97349C35.0414 3.97349 44.0269 12.959 44.0269 24.0025C44.0269 35.0459 35.0414 44.0314 23.9979 44.0314Z" fill="#7E6745"/>
</svg>
