<svg width="16" height="20" viewBox="0 0 16 20" fill="none" xmlns="http://www.w3.org/2000/svg">
<path fill-rule="evenodd" clip-rule="evenodd" d="M13.383 7.5002e-08C13.6503 -0.000157718 13.8299 0.248696 13.8354 0.452414V19.0951H14.5777C14.8168 19.0917 15.0372 19.3085 15.0372 19.5475C15.0372 19.7866 14.8168 20.0034 14.5777 20H0.459524C0.22045 20.0034 0 19.7866 0 19.5475C0 19.3085 0.22045 19.0917 0.459524 19.0951H1.20894V0.452414C1.20894 0.21555 1.4245 7.5002e-08 1.66135 7.5002e-08H13.383ZM2.86343 1.13113H2.86327C2.74082 1.12735 2.62214 1.17327 2.53425 1.25848C2.4462 1.34385 2.39665 1.4611 2.39665 1.58356V18.494C2.39665 18.634 2.46135 18.7661 2.57197 18.8518C2.68258 18.9375 2.82682 18.9673 2.96222 18.9322L9.07762 17.3133C9.27755 17.2617 9.41705 17.0814 9.41705 16.875V2.91958C9.41815 2.70433 9.26729 2.51797 9.05647 2.47427L2.94107 1.14527V1.14511C2.91566 1.13817 2.88963 1.13343 2.86327 1.13107L2.86343 1.13113Z" fill="black"/>
</svg>
