<svg width="28" height="18" viewBox="0 0 28 18" fill="none" xmlns="http://www.w3.org/2000/svg">
<path fill-rule="evenodd" clip-rule="evenodd" d="M7.44288 9C7.44288 5.62277 10.1811 2.88503 13.5579 2.88503C16.9351 2.88503 19.6728 5.62321 19.6728 9C19.6728 12.3772 16.9346 15.115 13.5579 15.115C10.1806 15.115 7.44288 12.3768 7.44288 9ZM13.5579 0C7.90131 0 2.91864 3.5746 0 9C2.91858 14.4254 7.90076 18 13.5579 18C19.2144 18 24.1971 14.4254 27.1157 9C24.1971 3.5746 19.215 0 13.5579 0Z" fill="#494949"/>
<path fill-rule="evenodd" clip-rule="evenodd" d="M13.5599 4.7959C11.2383 4.7959 9.35547 6.67877 9.35547 9.00029C9.35547 11.3218 11.2383 13.2047 13.5599 13.2047C15.8814 13.2047 17.7642 11.3218 17.7642 9.00029C17.7642 6.67877 15.8814 4.7959 13.5599 4.7959Z" fill="#494949"/>
</svg>
