<svg width="15" height="18" viewBox="0 0 15 18" fill="none" xmlns="http://www.w3.org/2000/svg">
<path d="M13.2927 3.87748C11.5488 0.408478 7.32152 -0.994287 3.85252 0.749759C0.383517 2.49374 -0.962378 6.87264 0.724798 10.19C1.52096 11.7634 4.83831 15.8579 6.29794 17.6588C6.65815 18.1137 7.34057 18.1137 7.71967 17.6588C9.17933 15.8579 12.4587 11.7634 13.3118 10.19C14.3732 8.25655 14.3353 5.94378 13.2927 3.87755L13.2927 3.87748ZM7.01822 10.7207C4.98983 10.7207 3.35965 9.07153 3.35965 7.06213C3.35965 5.03374 4.98989 3.40357 7.01822 3.40357C9.04661 3.40357 10.6768 5.05273 10.6768 7.06213C10.6957 9.07146 9.04654 10.7207 7.01822 10.7207Z" fill="black"/>
</svg>
