<svg width="45" height="45" viewBox="0 0 45 45" fill="none" xmlns="http://www.w3.org/2000/svg">
<path d="M44.3388 9.31168C35.623 3.1665 24.0621 0.441782 22.2941 0.0466961V0C22.2941 0 22.2539 0.0135422 22.1736 0.0266177C22.0998 0.013076 22.0597 0 22.0597 0V0.0537005C20.2857 0.441746 8.73072 3.16645 0.0149146 9.31163C0.0149146 9.31163 -1.35097 39.2091 22.0597 44.9328V44.9995C22.0998 44.9865 22.1334 44.9729 22.1736 44.9664C22.2138 44.9729 22.2539 44.9865 22.2941 45V44.9332C45.698 39.2092 44.3388 9.3121 44.3388 9.3121V9.31168ZM22.2749 41.5653V41.619C22.2413 41.6055 22.2082 41.5989 22.1745 41.5919C22.1409 41.5989 22.1078 41.6055 22.0741 41.612V41.5653C2.19192 36.6916 3.35029 11.2937 3.35029 11.2937C10.7545 6.07867 20.5679 3.76254 22.0741 3.4277V3.38754C22.0741 3.38754 22.1078 3.40109 22.1745 3.40762C22.2413 3.40109 22.2749 3.38754 22.2749 3.38754V3.43424C23.7814 3.76905 33.595 6.0852 40.9988 11.3002C41.0053 11.2937 42.1569 36.6921 22.2749 41.5659V41.5653Z" fill="#7E6745"/>
<path d="M38.6599 12.5527C32.2938 8.06749 23.906 5.99893 22.1786 5.61042V5.55719C22.1249 5.54365 22.0918 5.53711 22.0918 5.53711V5.57073C22.0847 5.57727 22.0717 5.57727 22.0647 5.57727C22.0581 5.57727 22.0446 5.57727 22.038 5.57073V5.53711C22.038 5.53711 22.0114 5.54365 21.9512 5.55719V5.61089C20.2239 6.00594 11.8428 8.0676 5.47592 12.5527C5.47592 12.5527 4.45187 35.1055 22.0982 39.4245V39.4712C22.1249 39.4577 22.1519 39.4512 22.1786 39.4442V10.8461C31.8185 10.9867 38.6467 14.4207 38.6467 14.4207C38.6868 13.2495 38.6597 12.5533 38.6597 12.5533L38.6599 12.5527Z" fill="#7E6745"/>
</svg>
